<?xml version="1.0" encoding="UTF-8"?>
<!-- Do not edit this file with editors other than draw.io -->
<!DOCTYPE svg PUBLIC "-//W3C//DTD SVG 1.1//EN" "http://www.w3.org/Graphics/SVG/1.1/DTD/svg11.dtd">
<svg xmlns="http://www.w3.org/2000/svg" xmlns:xlink="http://www.w3.org/1999/xlink" version="1.1" width="552px" height="410px" viewBox="-0.5 -0.5 552 410" class="ge-export-svg-dark" content="&lt;mxfile host=&quot;app.diagrams.net&quot; modified=&quot;2024-05-07T21:40:51.969Z&quot; agent=&quot;Mozilla/5.0 (Macintosh; Intel Mac OS X 10_15_7) AppleWebKit/537.36 (KHTML, like Gecko) Chrome/124.0.0.0 Safari/537.36&quot; etag=&quot;L16tfOiGuesLpCZcGTCo&quot; version=&quot;24.0.4&quot; type=&quot;google&quot; scale=&quot;1&quot; border=&quot;0&quot;&gt;&#10;  &lt;diagram name=&quot;Страница — 1&quot; id=&quot;4podrO4bocsx_IibvxXi&quot;&gt;&#10;    &lt;mxGraphModel dx=&quot;596&quot; dy=&quot;400&quot; grid=&quot;1&quot; gridSize=&quot;10&quot; guides=&quot;1&quot; tooltips=&quot;1&quot; connect=&quot;1&quot; arrows=&quot;1&quot; fold=&quot;1&quot; page=&quot;1&quot; pageScale=&quot;1&quot; pageWidth=&quot;827&quot; pageHeight=&quot;1169&quot; math=&quot;0&quot; shadow=&quot;0&quot;&gt;&#10;      &lt;root&gt;&#10;        &lt;mxCell id=&quot;0&quot; /&gt;&#10;        &lt;mxCell id=&quot;1&quot; parent=&quot;0&quot; /&gt;&#10;        &lt;mxCell id=&quot;Mwq1Trl-z-wIIevHWYqh-2&quot; value=&quot;&quot; style=&quot;rounded=1;whiteSpace=wrap;html=1;fillColor=#0088d1;strokeColor=#6c8ebf;shadow=1;textShadow=1;&quot; vertex=&quot;1&quot; parent=&quot;1&quot;&gt;&#10;          &lt;mxGeometry x=&quot;50&quot; y=&quot;170&quot; width=&quot;176&quot; height=&quot;110&quot; as=&quot;geometry&quot; /&gt;&#10;        &lt;/mxCell&gt;&#10;        &lt;mxCell id=&quot;Mwq1Trl-z-wIIevHWYqh-5&quot; value=&quot;&quot; style=&quot;rounded=1;whiteSpace=wrap;html=1;fillColor=#0088d1;strokeColor=#6c8ebf;shadow=1;textShadow=1;&quot; vertex=&quot;1&quot; parent=&quot;1&quot;&gt;&#10;          &lt;mxGeometry x=&quot;414&quot; y=&quot;260&quot; width=&quot;176&quot; height=&quot;110&quot; as=&quot;geometry&quot; /&gt;&#10;        &lt;/mxCell&gt;&#10;        &lt;mxCell id=&quot;Mwq1Trl-z-wIIevHWYqh-6&quot; value=&quot;&quot; style=&quot;rounded=1;whiteSpace=wrap;html=1;fillColor=#0088d1;strokeColor=#6c8ebf;shadow=1;textShadow=1;&quot; vertex=&quot;1&quot; parent=&quot;1&quot;&gt;&#10;          &lt;mxGeometry x=&quot;150&quot; y=&quot;370&quot; width=&quot;176&quot; height=&quot;110&quot; as=&quot;geometry&quot; /&gt;&#10;        &lt;/mxCell&gt;&#10;        &lt;mxCell id=&quot;Mwq1Trl-z-wIIevHWYqh-8&quot; value=&quot;&quot; style=&quot;endArrow=classic;html=1;rounded=1;entryX=0.5;entryY=0;entryDx=0;entryDy=0;strokeWidth=3;shadow=1;textShadow=1;jumpStyle=arc;flowAnimation=0;sketch=1;curveFitting=1;jiggle=2;edgeStyle=orthogonalEdgeStyle;curved=1;&quot; edge=&quot;1&quot; parent=&quot;1&quot; target=&quot;Mwq1Trl-z-wIIevHWYqh-2&quot;&gt;&#10;          &lt;mxGeometry width=&quot;50&quot; height=&quot;50&quot; relative=&quot;1&quot; as=&quot;geometry&quot;&gt;&#10;            &lt;mxPoint x=&quot;330&quot; y=&quot;80&quot; as=&quot;sourcePoint&quot; /&gt;&#10;            &lt;mxPoint x=&quot;420&quot; y=&quot;310&quot; as=&quot;targetPoint&quot; /&gt;&#10;            &lt;Array as=&quot;points&quot;&gt;&#10;              &lt;mxPoint x=&quot;330&quot; y=&quot;130&quot; /&gt;&#10;              &lt;mxPoint x=&quot;138&quot; y=&quot;130&quot; /&gt;&#10;            &lt;/Array&gt;&#10;          &lt;/mxGeometry&gt;&#10;        &lt;/mxCell&gt;&#10;        &lt;mxCell id=&quot;Mwq1Trl-z-wIIevHWYqh-9&quot; value=&quot;&quot; style=&quot;endArrow=classic;html=1;rounded=0;entryX=-0.006;entryY=0.425;entryDx=0;entryDy=0;strokeWidth=3;shadow=1;textShadow=1;jumpStyle=arc;flowAnimation=0;sketch=1;curveFitting=1;jiggle=2;edgeStyle=orthogonalEdgeStyle;curved=1;entryPerimeter=0;&quot; edge=&quot;1&quot; parent=&quot;1&quot; source=&quot;Mwq1Trl-z-wIIevHWYqh-2&quot; target=&quot;Mwq1Trl-z-wIIevHWYqh-5&quot;&gt;&#10;          &lt;mxGeometry width=&quot;50&quot; height=&quot;50&quot; relative=&quot;1&quot; as=&quot;geometry&quot;&gt;&#10;            &lt;mxPoint x=&quot;472&quot; y=&quot;240&quot; as=&quot;sourcePoint&quot; /&gt;&#10;            &lt;mxPoint x=&quot;370&quot; y=&quot;300&quot; as=&quot;targetPoint&quot; /&gt;&#10;          &lt;/mxGeometry&gt;&#10;        &lt;/mxCell&gt;&#10;        &lt;mxCell id=&quot;Mwq1Trl-z-wIIevHWYqh-10&quot; value=&quot;&quot; style=&quot;endArrow=classic;html=1;rounded=0;entryX=0.994;entryY=0.553;entryDx=0;entryDy=0;strokeWidth=3;shadow=1;textShadow=1;jumpStyle=arc;flowAnimation=0;sketch=1;curveFitting=1;jiggle=2;edgeStyle=orthogonalEdgeStyle;curved=1;entryPerimeter=0;exitX=0.5;exitY=1;exitDx=0;exitDy=0;&quot; edge=&quot;1&quot; parent=&quot;1&quot; source=&quot;Mwq1Trl-z-wIIevHWYqh-5&quot; target=&quot;Mwq1Trl-z-wIIevHWYqh-6&quot;&gt;&#10;          &lt;mxGeometry width=&quot;50&quot; height=&quot;50&quot; relative=&quot;1&quot; as=&quot;geometry&quot;&gt;&#10;            &lt;mxPoint x=&quot;470&quot; y=&quot;398&quot; as=&quot;sourcePoint&quot; /&gt;&#10;            &lt;mxPoint x=&quot;583&quot; y=&quot;480&quot; as=&quot;targetPoint&quot; /&gt;&#10;          &lt;/mxGeometry&gt;&#10;        &lt;/mxCell&gt;&#10;      &lt;/root&gt;&#10;    &lt;/mxGraphModel&gt;&#10;  &lt;/diagram&gt;&#10;&lt;/mxfile&gt;&#10;"><defs><style type="text/css">svg.ge-export-svg-dark { filter: invert(100%) hue-rotate(180deg); }&#xa;svg.ge-export-svg-dark foreignObject img,&#xa;svg.ge-export-svg-dark image:not(svg.ge-export-svg-dark switch image),&#xa;svg.ge-export-svg-dark svg { filter: invert(100%) hue-rotate(180deg) }</style></defs><g><g style="filter: drop-shadow(rgba(0, 0, 0, 0.25) 2px 3px 2px);"><rect x="4" y="91" width="176" height="110" rx="16.5" ry="16.5" fill="#0088d1" stroke="#6c8ebf" pointer-events="all"/></g><g style="filter: drop-shadow(rgba(0, 0, 0, 0.25) 2px 3px 2px);"><rect x="368" y="181" width="176" height="110" rx="16.5" ry="16.5" fill="#0088d1" stroke="#6c8ebf" pointer-events="all"/></g><g style="filter: drop-shadow(rgba(0, 0, 0, 0.25) 2px 3px 2px);"><rect x="104" y="291" width="176" height="110" rx="16.5" ry="16.5" fill="#0088d1" stroke="#6c8ebf" pointer-events="all"/></g><g style="filter: drop-shadow(rgba(0, 0, 0, 0.25) 2px 3px 2px);"><path d="M 284 1 Q 284 51 188 51 Q 92 51 92 80.9" fill="none" stroke="none" pointer-events="stroke"/><path d="M 92 87.65 L 87.5 78.65 L 92 80.9 L 96.5 78.65 Z" fill="none" stroke="none" pointer-events="all"/><path d="M 284 1 M 284 1 C 284.41 34.81 254.04 51.92 188 51 M 284 1 C 284.04 31.01 252.32 52.54 188 51 M 188 51 C 127.32 48.66 90.53 58.72 92 80.9 M 188 51 C 126.55 47.31 96.3 57.92 92 80.9" fill="none" stroke="rgb(0, 0, 0)" stroke-width="3" stroke-linejoin="round" stroke-linecap="round" stroke-miterlimit="10" pointer-events="stroke"/><path d="M 87.68 78.45 C 87.68 78.45 87.68 78.45 87.68 78.45 M 87.68 78.45 C 87.68 78.45 87.68 78.45 87.68 78.45" fill="none" stroke="rgb(0, 0, 0)" stroke-width="1.5" stroke-linejoin="round" stroke-linecap="round" stroke-miterlimit="10" pointer-events="all"/><path d="M 92 87.65 M 92 87.65 C 88.96 84.08 87.28 81.37 87.5 78.65 M 92 87.65 C 90.01 84.71 89.95 83.75 87.5 78.65 M 87.5 78.65 C 89.85 79.28 89.5 80.72 92 80.9 M 87.5 78.65 C 88.79 78.98 89.91 79.56 92 80.9 M 92 80.9 C 93.19 79.71 93.89 79.73 96.5 78.65 M 92 80.9 C 93.54 80.75 93.95 79.44 96.5 78.65 M 96.5 78.65 C 93.62 79.66 95.34 83.7 92 87.65 M 96.5 78.65 C 95.3 81.49 93.46 83.63 92 87.65" fill="none" stroke="rgb(0, 0, 0)" stroke-width="3" stroke-linejoin="round" stroke-linecap="round" stroke-miterlimit="10" pointer-events="all"/></g><g style="filter: drop-shadow(rgba(0, 0, 0, 0.25) 2px 3px 2px);"><path d="M 180 146.03 Q 274 146.03 274 186.91 Q 274 227.79 356.84 227.75" fill="none" stroke="none" pointer-events="stroke"/><path d="M 363.59 227.75 L 354.59 232.26 L 356.84 227.75 L 354.59 223.26 Z" fill="none" stroke="none" pointer-events="all"/><path d="M 180 146.03 M 180 146.03 C 243.08 147.19 272.85 158.3 274 186.91 M 180 146.03 C 240.33 146.57 272.39 155.31 274 186.91 M 274 186.91 C 277.86 214.24 304.93 226.38 356.84 227.75 M 274 186.91 C 270.9 217.06 298.33 230.55 356.84 227.75" fill="none" stroke="rgb(0, 0, 0)" stroke-width="3" stroke-linejoin="round" stroke-linecap="round" stroke-miterlimit="10" pointer-events="stroke"/><path d="M 354.71 223.12 C 354.71 223.12 354.71 223.12 354.71 223.12 M 354.71 223.12 C 354.71 223.12 354.71 223.12 354.71 223.12" fill="none" stroke="rgb(0, 0, 0)" stroke-width="1.5" stroke-linejoin="round" stroke-linecap="round" stroke-miterlimit="10" pointer-events="all"/><path d="M 363.59 227.75 M 363.59 227.75 C 359.83 226.89 360.73 231.44 354.59 232.26 M 363.59 227.75 C 361.93 227.82 359.89 229.84 354.59 232.26 M 354.59 232.26 C 355.91 231.53 355.79 229.83 356.84 227.75 M 354.59 232.26 C 354.99 230.47 356.06 229.33 356.84 227.75 M 356.84 227.75 C 355.66 226.28 354.96 226.87 354.59 223.26 M 356.84 227.75 C 355.79 226.34 355.44 224.78 354.59 223.26 M 354.59 223.26 C 356.98 225.25 359.14 226.4 363.59 227.75 M 354.59 223.26 C 358.7 225.12 361.42 227.42 363.59 227.75" fill="none" stroke="rgb(0, 0, 0)" stroke-width="3" stroke-linejoin="round" stroke-linecap="round" stroke-miterlimit="10" pointer-events="all"/></g><g style="filter: drop-shadow(rgba(0, 0, 0, 0.25) 2px 3px 2px);"><path d="M 456 291 Q 456 351.79 289.05 351.83" fill="none" stroke="none" pointer-events="stroke"/><path d="M 282.3 351.83 L 291.3 347.33 L 289.05 351.83 L 291.3 356.33 Z" fill="none" stroke="none" pointer-events="all"/><path d="M 456 291 M 456 291 C 452.69 335.42 402.67 350.7 289.05 351.83 M 456 291 C 455.32 329.87 404.3 355.13 289.05 351.83" fill="none" stroke="rgb(0, 0, 0)" stroke-width="3" stroke-linejoin="round" stroke-linecap="round" stroke-miterlimit="10" pointer-events="stroke"/><path d="M 282.06 352.1 C 282.06 352.1 282.06 352.1 282.06 352.1 M 282.06 352.1 C 282.06 352.1 282.06 352.1 282.06 352.1" fill="none" stroke="rgb(0, 0, 0)" stroke-width="1.5" stroke-linejoin="round" stroke-linecap="round" stroke-miterlimit="10" pointer-events="all"/><path d="M 282.3 351.83 M 282.3 351.83 C 284.93 351.84 286.43 349.75 291.3 347.33 M 282.3 351.83 C 286.15 350.78 288.18 348.3 291.3 347.33 M 291.3 347.33 C 290.55 348 289.61 350.43 289.05 351.83 M 291.3 347.33 C 290.55 348.61 290.15 350.83 289.05 351.83 M 289.05 351.83 C 289.09 353.85 289.33 355.22 291.3 356.33 M 289.05 351.83 C 289.64 353.43 290.95 354.73 291.3 356.33 M 291.3 356.33 C 288.31 355.09 287.45 354.77 282.3 351.83 M 291.3 356.33 C 289.54 355.9 285.46 354.23 282.3 351.83" fill="none" stroke="rgb(0, 0, 0)" stroke-width="3" stroke-linejoin="round" stroke-linecap="round" stroke-miterlimit="10" pointer-events="all"/></g></g></svg>