<?xml version="1.0" encoding="UTF-8"?>
<!-- Do not edit this file with editors other than draw.io -->
<!DOCTYPE svg PUBLIC "-//W3C//DTD SVG 1.1//EN" "http://www.w3.org/Graphics/SVG/1.1/DTD/svg11.dtd">
<svg xmlns="http://www.w3.org/2000/svg" xmlns:xlink="http://www.w3.org/1999/xlink" version="1.1" width="819px" height="644px" viewBox="-0.5 -0.5 819 644" class="ge-export-svg-dark" content="&lt;mxfile host=&quot;app.diagrams.net&quot; modified=&quot;2024-05-07T23:16:33.675Z&quot; agent=&quot;Mozilla/5.0 (Macintosh; Intel Mac OS X 10_15_7) AppleWebKit/537.36 (KHTML, like Gecko) Chrome/124.0.0.0 Safari/537.36&quot; etag=&quot;NRtmTIMZ5YJiSx8mQTzx&quot; version=&quot;24.0.4&quot; type=&quot;google&quot; scale=&quot;1&quot; border=&quot;0&quot;&gt;&#10;  &lt;diagram name=&quot;Страница — 1&quot; id=&quot;4podrO4bocsx_IibvxXi&quot;&gt;&#10;    &lt;mxGraphModel dx=&quot;2187&quot; dy=&quot;1467&quot; grid=&quot;0&quot; gridSize=&quot;10&quot; guides=&quot;1&quot; tooltips=&quot;1&quot; connect=&quot;1&quot; arrows=&quot;1&quot; fold=&quot;1&quot; page=&quot;1&quot; pageScale=&quot;1&quot; pageWidth=&quot;827&quot; pageHeight=&quot;1169&quot; math=&quot;0&quot; shadow=&quot;0&quot;&gt;&#10;      &lt;root&gt;&#10;        &lt;mxCell id=&quot;0&quot; /&gt;&#10;        &lt;mxCell id=&quot;1&quot; parent=&quot;0&quot; /&gt;&#10;        &lt;mxCell id=&quot;Mwq1Trl-z-wIIevHWYqh-17&quot; value=&quot;&quot; style=&quot;group&quot; vertex=&quot;1&quot; connectable=&quot;0&quot; parent=&quot;1&quot;&gt;&#10;          &lt;mxGeometry x=&quot;6&quot; y=&quot;13&quot; width=&quot;807&quot; height=&quot;633&quot; as=&quot;geometry&quot; /&gt;&#10;        &lt;/mxCell&gt;&#10;        &lt;mxCell id=&quot;Mwq1Trl-z-wIIevHWYqh-2&quot; value=&quot;&quot; style=&quot;rounded=1;whiteSpace=wrap;html=1;fillColor=#0088d1;strokeColor=#6c8ebf;shadow=1;textShadow=1;&quot; vertex=&quot;1&quot; parent=&quot;Mwq1Trl-z-wIIevHWYqh-17&quot;&gt;&#10;          &lt;mxGeometry y=&quot;148.14893617021278&quot; width=&quot;269.87337662337666&quot; height=&quot;202.0212765957447&quot; as=&quot;geometry&quot; /&gt;&#10;        &lt;/mxCell&gt;&#10;        &lt;mxCell id=&quot;Mwq1Trl-z-wIIevHWYqh-9&quot; value=&quot;&quot; style=&quot;endArrow=classic;html=1;rounded=0;entryX=0;entryY=0.5;entryDx=0;entryDy=0;strokeWidth=3;shadow=1;textShadow=1;jumpStyle=arc;flowAnimation=0;sketch=1;curveFitting=1;jiggle=2;edgeStyle=orthogonalEdgeStyle;curved=1;&quot; edge=&quot;1&quot; parent=&quot;Mwq1Trl-z-wIIevHWYqh-17&quot; source=&quot;Mwq1Trl-z-wIIevHWYqh-2&quot; target=&quot;Mwq1Trl-z-wIIevHWYqh-15&quot;&gt;&#10;          &lt;mxGeometry width=&quot;50&quot; height=&quot;50&quot; relative=&quot;1&quot; as=&quot;geometry&quot;&gt;&#10;            &lt;mxPoint x=&quot;592.1493506493506&quot; y=&quot;242.4255319148936&quot; as=&quot;sourcePoint&quot; /&gt;&#10;            &lt;mxPoint x=&quot;514.7821558441557&quot; y=&quot;332.3250000000001&quot; as=&quot;targetPoint&quot; /&gt;&#10;          &lt;/mxGeometry&gt;&#10;        &lt;/mxCell&gt;&#10;        &lt;mxCell id=&quot;Mwq1Trl-z-wIIevHWYqh-10&quot; value=&quot;&quot; style=&quot;endArrow=classic;html=1;rounded=0;entryX=1;entryY=0.5;entryDx=0;entryDy=0;strokeWidth=3;shadow=1;textShadow=1;jumpStyle=arc;flowAnimation=0;sketch=1;curveFitting=1;jiggle=2;edgeStyle=orthogonalEdgeStyle;curved=1;exitX=0.5;exitY=1;exitDx=0;exitDy=0;&quot; edge=&quot;1&quot; parent=&quot;Mwq1Trl-z-wIIevHWYqh-17&quot; source=&quot;Mwq1Trl-z-wIIevHWYqh-15&quot; target=&quot;Mwq1Trl-z-wIIevHWYqh-16&quot;&gt;&#10;          &lt;mxGeometry width=&quot;50&quot; height=&quot;50&quot; relative=&quot;1&quot; as=&quot;geometry&quot;&gt;&#10;            &lt;mxPoint x=&quot;628.831168831169&quot; y=&quot;418.85744680851064&quot; as=&quot;sourcePoint&quot; /&gt;&#10;            &lt;mxPoint x=&quot;399.4964415584418&quot; y=&quot;499.43700000000007&quot; as=&quot;targetPoint&quot; /&gt;&#10;          &lt;/mxGeometry&gt;&#10;        &lt;/mxCell&gt;&#10;        &lt;mxCell id=&quot;Mwq1Trl-z-wIIevHWYqh-14&quot; value=&quot;&quot; style=&quot;endArrow=classic;html=1;rounded=0;entryX=0.5;entryY=0;entryDx=0;entryDy=0;strokeWidth=3;shadow=1;textShadow=1;jumpStyle=arc;flowAnimation=0;sketch=1;curveFitting=1;jiggle=2;edgeStyle=orthogonalEdgeStyle;curved=1;&quot; edge=&quot;1&quot; parent=&quot;Mwq1Trl-z-wIIevHWYqh-17&quot; target=&quot;Mwq1Trl-z-wIIevHWYqh-2&quot;&gt;&#10;          &lt;mxGeometry width=&quot;50&quot; height=&quot;50&quot; relative=&quot;1&quot; as=&quot;geometry&quot;&gt;&#10;            &lt;mxPoint x=&quot;432.32142857142856&quot; as=&quot;sourcePoint&quot; /&gt;&#10;            &lt;mxPoint x=&quot;506.99512987012986&quot; y=&quot;96.97021276595744&quot; as=&quot;targetPoint&quot; /&gt;&#10;            &lt;Array as=&quot;points&quot;&gt;&#10;              &lt;mxPoint x=&quot;432.32142857142856&quot; y=&quot;53.87234042553192&quot; /&gt;&#10;              &lt;mxPoint x=&quot;134.93668831168833&quot; y=&quot;53.87234042553192&quot; /&gt;&#10;            &lt;/Array&gt;&#10;          &lt;/mxGeometry&gt;&#10;        &lt;/mxCell&gt;&#10;        &lt;mxCell id=&quot;Mwq1Trl-z-wIIevHWYqh-15&quot; value=&quot;&quot; style=&quot;rounded=1;whiteSpace=wrap;html=1;fillColor=#0088d1;strokeColor=#6c8ebf;shadow=1;textShadow=1;&quot; vertex=&quot;1&quot; parent=&quot;Mwq1Trl-z-wIIevHWYqh-17&quot;&gt;&#10;          &lt;mxGeometry x=&quot;537.1266233766233&quot; y=&quot;242.4255319148936&quot; width=&quot;269.87337662337666&quot; height=&quot;202.0212765957447&quot; as=&quot;geometry&quot; /&gt;&#10;        &lt;/mxCell&gt;&#10;        &lt;mxCell id=&quot;Mwq1Trl-z-wIIevHWYqh-16&quot; value=&quot;&quot; style=&quot;rounded=1;whiteSpace=wrap;html=1;fillColor=#0088d1;strokeColor=#6c8ebf;shadow=1;textShadow=1;&quot; vertex=&quot;1&quot; parent=&quot;Mwq1Trl-z-wIIevHWYqh-17&quot;&gt;&#10;          &lt;mxGeometry x=&quot;91.70454545454545&quot; y=&quot;430.97872340425533&quot; width=&quot;269.87337662337666&quot; height=&quot;202.0212765957447&quot; as=&quot;geometry&quot; /&gt;&#10;        &lt;/mxCell&gt;&#10;      &lt;/root&gt;&#10;    &lt;/mxGraphModel&gt;&#10;  &lt;/diagram&gt;&#10;&lt;/mxfile&gt;&#10;"><defs><style type="text/css">svg.ge-export-svg-dark { filter: invert(100%) hue-rotate(180deg); }&#xa;svg.ge-export-svg-dark foreignObject img,&#xa;svg.ge-export-svg-dark image:not(svg.ge-export-svg-dark switch image),&#xa;svg.ge-export-svg-dark svg { filter: invert(100%) hue-rotate(180deg) }</style></defs><g><g/><g style="filter: drop-shadow(rgba(0, 0, 0, 0.25) 2px 3px 2px);"><rect x="4" y="149.15" width="269.87" height="202.02" rx="30.3" ry="30.3" fill="#0088d1" stroke="#6c8ebf" pointer-events="all"/></g><g style="filter: drop-shadow(rgba(0, 0, 0, 0.25) 2px 3px 2px);"><path d="M 273.87 250.11 Q 407.44 250.11 407.44 297.22 Q 407.44 344.33 531.02 344.43" fill="none" stroke="none" pointer-events="stroke"/><path d="M 537.77 344.43 L 528.77 348.93 L 531.02 344.43 L 528.78 339.93 Z" fill="none" stroke="none" pointer-events="all"/><path d="M 273.87 250.11 M 273.87 250.11 C 363.33 251.27 406.29 264.45 407.44 297.22 M 273.87 250.11 C 360.58 250.65 405.83 261.47 407.44 297.22 M 407.44 297.22 C 411.3 328.7 451.95 342.97 531.02 344.43 M 407.44 297.22 C 404.34 331.53 445.35 347.14 531.02 344.43" fill="none" stroke="rgb(0, 0, 0)" stroke-width="3" stroke-linejoin="round" stroke-linecap="round" stroke-miterlimit="10" pointer-events="stroke"/><path d="M 528.61 340.13 C 528.61 340.13 528.61 340.13 528.61 340.13 M 528.61 340.13 C 528.61 340.13 528.61 340.13 528.61 340.13" fill="none" stroke="rgb(0, 0, 0)" stroke-width="1.5" stroke-linejoin="round" stroke-linecap="round" stroke-miterlimit="10" pointer-events="all"/><path d="M 537.77 344.43 M 537.77 344.43 C 534.01 343.57 534.91 348.12 528.77 348.93 M 537.77 344.43 C 536.11 344.5 534.07 346.51 528.77 348.93 M 528.77 348.93 C 530.09 348.21 529.97 346.51 531.02 344.43 M 528.77 348.93 C 529.17 347.15 530.24 346.01 531.02 344.43 M 531.02 344.43 C 529.84 342.96 529.14 343.55 528.78 339.93 M 531.02 344.43 C 529.98 343.02 529.63 341.45 528.78 339.93 M 528.78 339.93 C 531.17 341.93 533.33 343.07 537.77 344.43 M 528.78 339.93 C 532.89 341.79 535.6 344.1 537.77 344.43" fill="none" stroke="rgb(0, 0, 0)" stroke-width="3" stroke-linejoin="round" stroke-linecap="round" stroke-miterlimit="10" pointer-events="all"/></g><g style="filter: drop-shadow(rgba(0, 0, 0, 0.25) 2px 3px 2px);"><path d="M 676.06 445.45 Q 676.11 533 375.68 532.99" fill="none" stroke="none" pointer-events="stroke"/><path d="M 368.93 532.99 L 377.93 528.49 L 375.68 532.99 L 377.93 537.49 Z" fill="none" stroke="none" pointer-events="all"/><path d="M 676.06 445.45 M 676.06 445.45 C 672.78 507.71 578.28 531.89 375.68 532.99 M 676.06 445.45 C 675.42 502.16 579.92 536.32 375.68 532.99" fill="none" stroke="rgb(0, 0, 0)" stroke-width="3" stroke-linejoin="round" stroke-linecap="round" stroke-miterlimit="10" pointer-events="stroke"/><path d="M 369.14 532.75 C 369.14 532.75 369.14 532.75 369.14 532.75 M 369.14 532.75 C 369.14 532.75 369.14 532.75 369.14 532.75" fill="none" stroke="rgb(0, 0, 0)" stroke-width="1.5" stroke-linejoin="round" stroke-linecap="round" stroke-miterlimit="10" pointer-events="all"/><path d="M 368.93 532.99 M 368.93 532.99 C 371.56 533 373.06 530.91 377.93 528.49 M 368.93 532.99 C 372.78 531.94 374.81 529.46 377.93 528.49 M 377.93 528.49 C 377.18 529.16 376.24 531.59 375.68 532.99 M 377.93 528.49 C 377.18 529.77 376.78 531.99 375.68 532.99 M 375.68 532.99 C 375.72 535.01 375.96 536.38 377.93 537.49 M 375.68 532.99 C 376.27 534.59 377.58 535.89 377.93 537.49 M 377.93 537.49 C 374.94 536.25 374.08 535.93 368.93 532.99 M 377.93 537.49 C 376.17 537.06 372.09 535.39 368.93 532.99" fill="none" stroke="rgb(0, 0, 0)" stroke-width="3" stroke-linejoin="round" stroke-linecap="round" stroke-miterlimit="10" pointer-events="all"/></g><g style="filter: drop-shadow(rgba(0, 0, 0, 0.25) 2px 3px 2px);"><path d="M 436.32 1 Q 436.33 54.78 287.67 54.78 Q 139 54.78 138.94 139.04" fill="none" stroke="none" pointer-events="stroke"/><path d="M 138.94 145.79 L 134.44 136.79 L 138.94 139.04 L 143.44 136.8 Z" fill="none" stroke="none" pointer-events="all"/><path d="M 436.32 1 M 436.32 1 C 433.01 35.46 384.34 52.53 287.67 54.78 M 436.32 1 C 435.32 32.26 383.03 52.95 287.67 54.78 M 287.67 54.78 C 186.35 56.14 135.91 80.2 138.94 139.04 M 287.67 54.78 C 187.79 59 143.53 86.69 138.94 139.04" fill="none" stroke="rgb(0, 0, 0)" stroke-width="3" stroke-linejoin="round" stroke-linecap="round" stroke-miterlimit="10" pointer-events="stroke"/><path d="M 134.53 136.69 C 134.53 136.69 134.53 136.69 134.53 136.69 M 134.53 136.69 C 134.53 136.69 134.53 136.69 134.53 136.69" fill="none" stroke="rgb(0, 0, 0)" stroke-width="1.5" stroke-linejoin="round" stroke-linecap="round" stroke-miterlimit="10" pointer-events="all"/><path d="M 138.94 145.79 M 138.94 145.79 C 135.78 140.27 136.63 138.43 134.44 136.79 M 138.94 145.79 C 136.83 142.94 135.74 140.77 134.44 136.79 M 134.44 136.79 C 136.21 136.51 137 136.76 138.94 139.04 M 134.44 136.79 C 135.5 137.4 137.57 138.44 138.94 139.04 M 138.94 139.04 C 140.54 139.27 140.31 138.41 143.44 136.8 M 138.94 139.04 C 140.57 138.05 142.02 137.67 143.44 136.8 M 143.44 136.8 C 140.27 139.74 139.48 143.29 138.94 145.79 M 143.44 136.8 C 142.3 139.06 141.79 140.82 138.94 145.79" fill="none" stroke="rgb(0, 0, 0)" stroke-width="3" stroke-linejoin="round" stroke-linecap="round" stroke-miterlimit="10" pointer-events="all"/></g><g style="filter: drop-shadow(rgba(0, 0, 0, 0.25) 2px 3px 2px);"><rect x="541.13" y="243.43" width="269.87" height="202.02" rx="30.3" ry="30.3" fill="#0088d1" stroke="#6c8ebf" pointer-events="all"/></g><g style="filter: drop-shadow(rgba(0, 0, 0, 0.25) 2px 3px 2px);"><rect x="95.7" y="431.98" width="269.87" height="202.02" rx="30.3" ry="30.3" fill="#0088d1" stroke="#6c8ebf" pointer-events="all"/></g></g></svg>