<?xml version="1.0" encoding="UTF-8"?>
<!-- Do not edit this file with editors other than draw.io -->
<!DOCTYPE svg PUBLIC "-//W3C//DTD SVG 1.1//EN" "http://www.w3.org/Graphics/SVG/1.1/DTD/svg11.dtd">
<svg xmlns="http://www.w3.org/2000/svg" xmlns:xlink="http://www.w3.org/1999/xlink" version="1.1" width="545px" height="373px" viewBox="-0.5 -0.5 545 373" class="ge-export-svg-dark" content="&lt;mxfile host=&quot;app.diagrams.net&quot; modified=&quot;2024-05-07T21:28:00.445Z&quot; agent=&quot;Mozilla/5.0 (Macintosh; Intel Mac OS X 10_15_7) AppleWebKit/537.36 (KHTML, like Gecko) Chrome/124.0.0.0 Safari/537.36&quot; etag=&quot;Ph0zXDWF6gsvArGgrg-e&quot; version=&quot;24.0.4&quot; type=&quot;google&quot; scale=&quot;1&quot; border=&quot;0&quot;&gt;&#10;  &lt;diagram name=&quot;Страница — 1&quot; id=&quot;4podrO4bocsx_IibvxXi&quot;&gt;&#10;    &lt;mxGraphModel dx=&quot;787&quot; dy=&quot;528&quot; grid=&quot;1&quot; gridSize=&quot;10&quot; guides=&quot;1&quot; tooltips=&quot;1&quot; connect=&quot;1&quot; arrows=&quot;1&quot; fold=&quot;1&quot; page=&quot;1&quot; pageScale=&quot;1&quot; pageWidth=&quot;827&quot; pageHeight=&quot;1169&quot; math=&quot;0&quot; shadow=&quot;0&quot;&gt;&#10;      &lt;root&gt;&#10;        &lt;mxCell id=&quot;0&quot; /&gt;&#10;        &lt;mxCell id=&quot;1&quot; parent=&quot;0&quot; /&gt;&#10;        &lt;mxCell id=&quot;Mwq1Trl-z-wIIevHWYqh-2&quot; value=&quot;&quot; style=&quot;rounded=1;whiteSpace=wrap;html=1;fillColor=#0088d1;strokeColor=#6c8ebf;shadow=1;textShadow=1;&quot; vertex=&quot;1&quot; parent=&quot;1&quot;&gt;&#10;          &lt;mxGeometry x=&quot;50&quot; y=&quot;170&quot; width=&quot;176&quot; height=&quot;110&quot; as=&quot;geometry&quot; /&gt;&#10;        &lt;/mxCell&gt;&#10;        &lt;mxCell id=&quot;Mwq1Trl-z-wIIevHWYqh-5&quot; value=&quot;&quot; style=&quot;rounded=1;whiteSpace=wrap;html=1;fillColor=#0088d1;strokeColor=#6c8ebf;&quot; vertex=&quot;1&quot; parent=&quot;1&quot;&gt;&#10;          &lt;mxGeometry x=&quot;414&quot; y=&quot;260&quot; width=&quot;176&quot; height=&quot;110&quot; as=&quot;geometry&quot; /&gt;&#10;        &lt;/mxCell&gt;&#10;        &lt;mxCell id=&quot;Mwq1Trl-z-wIIevHWYqh-6&quot; value=&quot;&quot; style=&quot;rounded=1;whiteSpace=wrap;html=1;fillColor=#0088d1;strokeColor=#6c8ebf;&quot; vertex=&quot;1&quot; parent=&quot;1&quot;&gt;&#10;          &lt;mxGeometry x=&quot;150&quot; y=&quot;370&quot; width=&quot;176&quot; height=&quot;110&quot; as=&quot;geometry&quot; /&gt;&#10;        &lt;/mxCell&gt;&#10;        &lt;mxCell id=&quot;Mwq1Trl-z-wIIevHWYqh-8&quot; value=&quot;&quot; style=&quot;endArrow=classic;html=1;rounded=0;entryX=0.5;entryY=0;entryDx=0;entryDy=0;strokeWidth=3;shadow=1;textShadow=1;jumpStyle=arc;flowAnimation=0;sketch=1;curveFitting=1;jiggle=2;edgeStyle=orthogonalEdgeStyle;curved=1;&quot; edge=&quot;1&quot; parent=&quot;1&quot; target=&quot;Mwq1Trl-z-wIIevHWYqh-2&quot;&gt;&#10;          &lt;mxGeometry width=&quot;50&quot; height=&quot;50&quot; relative=&quot;1&quot; as=&quot;geometry&quot;&gt;&#10;            &lt;mxPoint x=&quot;290&quot; y=&quot;110&quot; as=&quot;sourcePoint&quot; /&gt;&#10;            &lt;mxPoint x=&quot;420&quot; y=&quot;310&quot; as=&quot;targetPoint&quot; /&gt;&#10;          &lt;/mxGeometry&gt;&#10;        &lt;/mxCell&gt;&#10;        &lt;mxCell id=&quot;Mwq1Trl-z-wIIevHWYqh-9&quot; value=&quot;&quot; style=&quot;endArrow=classic;html=1;rounded=0;entryX=-0.006;entryY=0.425;entryDx=0;entryDy=0;strokeWidth=3;shadow=1;textShadow=1;jumpStyle=arc;flowAnimation=0;sketch=1;curveFitting=1;jiggle=2;edgeStyle=orthogonalEdgeStyle;curved=1;entryPerimeter=0;&quot; edge=&quot;1&quot; parent=&quot;1&quot; source=&quot;Mwq1Trl-z-wIIevHWYqh-2&quot; target=&quot;Mwq1Trl-z-wIIevHWYqh-5&quot;&gt;&#10;          &lt;mxGeometry width=&quot;50&quot; height=&quot;50&quot; relative=&quot;1&quot; as=&quot;geometry&quot;&gt;&#10;            &lt;mxPoint x=&quot;472&quot; y=&quot;240&quot; as=&quot;sourcePoint&quot; /&gt;&#10;            &lt;mxPoint x=&quot;370&quot; y=&quot;300&quot; as=&quot;targetPoint&quot; /&gt;&#10;          &lt;/mxGeometry&gt;&#10;        &lt;/mxCell&gt;&#10;        &lt;mxCell id=&quot;Mwq1Trl-z-wIIevHWYqh-10&quot; value=&quot;&quot; style=&quot;endArrow=classic;html=1;rounded=0;entryX=0.994;entryY=0.553;entryDx=0;entryDy=0;strokeWidth=3;shadow=1;textShadow=1;jumpStyle=arc;flowAnimation=0;sketch=1;curveFitting=1;jiggle=2;edgeStyle=orthogonalEdgeStyle;curved=1;entryPerimeter=0;exitX=0.5;exitY=1;exitDx=0;exitDy=0;&quot; edge=&quot;1&quot; parent=&quot;1&quot; source=&quot;Mwq1Trl-z-wIIevHWYqh-5&quot; target=&quot;Mwq1Trl-z-wIIevHWYqh-6&quot;&gt;&#10;          &lt;mxGeometry width=&quot;50&quot; height=&quot;50&quot; relative=&quot;1&quot; as=&quot;geometry&quot;&gt;&#10;            &lt;mxPoint x=&quot;470&quot; y=&quot;398&quot; as=&quot;sourcePoint&quot; /&gt;&#10;            &lt;mxPoint x=&quot;583&quot; y=&quot;480&quot; as=&quot;targetPoint&quot; /&gt;&#10;          &lt;/mxGeometry&gt;&#10;        &lt;/mxCell&gt;&#10;      &lt;/root&gt;&#10;    &lt;/mxGraphModel&gt;&#10;  &lt;/diagram&gt;&#10;&lt;/mxfile&gt;&#10;"><defs><style type="text/css">svg.ge-export-svg-dark { filter: invert(100%) hue-rotate(180deg); }&#xa;svg.ge-export-svg-dark foreignObject img,&#xa;svg.ge-export-svg-dark image:not(svg.ge-export-svg-dark switch image),&#xa;svg.ge-export-svg-dark svg { filter: invert(100%) hue-rotate(180deg) }</style></defs><g><g style="filter: drop-shadow(rgba(0, 0, 0, 0.25) 2px 3px 2px);"><rect x="4" y="61" width="176" height="110" rx="16.5" ry="16.5" fill="#0088d1" stroke="#6c8ebf" pointer-events="all"/></g><g><rect x="368" y="151" width="176" height="110" rx="16.5" ry="16.5" fill="#0088d1" stroke="#6c8ebf" pointer-events="all"/></g><g><rect x="104" y="261" width="176" height="110" rx="16.5" ry="16.5" fill="#0088d1" stroke="#6c8ebf" pointer-events="all"/></g><g style="filter: drop-shadow(rgba(0, 0, 0, 0.25) 2px 3px 2px);"><path d="M 244 1 Q 92.04 1.48 92.01 50.9" fill="none" stroke="none" pointer-events="stroke"/><path d="M 92 57.65 L 87.51 48.64 L 92.01 50.9 L 96.51 48.65 Z" fill="none" stroke="none" pointer-events="all"/><path d="M 244 1 M 244 1 C 143.1 1.8 94.07 18.88 92.01 50.9 M 244 1 C 142.74 -2 92.35 19.5 92.01 50.9" fill="none" stroke="rgb(0, 0, 0)" stroke-width="3" stroke-linejoin="round" stroke-linecap="round" stroke-miterlimit="10" pointer-events="stroke"/><path d="M 87.21 48.98 C 87.21 48.98 87.21 48.98 87.21 48.98 M 87.21 48.98 C 87.21 48.98 87.21 48.98 87.21 48.98" fill="none" stroke="rgb(0, 0, 0)" stroke-width="1.5" stroke-linejoin="round" stroke-linecap="round" stroke-miterlimit="10" pointer-events="all"/><path d="M 92 57.65 M 92 57.65 C 88.97 54.07 87.29 51.36 87.51 48.64 M 92 57.65 C 90.01 54.71 89.96 53.74 87.51 48.64 M 87.51 48.64 C 89.86 49.27 89.51 50.72 92.01 50.9 M 87.51 48.64 C 88.8 48.97 89.92 49.55 92.01 50.9 M 92.01 50.9 C 93.2 49.71 93.9 49.73 96.51 48.65 M 92.01 50.9 C 93.55 50.75 93.96 49.44 96.51 48.65 M 96.51 48.65 C 93.62 49.66 95.35 53.7 92 57.65 M 96.51 48.65 C 95.3 51.49 93.46 53.63 92 57.65" fill="none" stroke="rgb(0, 0, 0)" stroke-width="3" stroke-linejoin="round" stroke-linecap="round" stroke-miterlimit="10" pointer-events="all"/></g><g style="filter: drop-shadow(rgba(0, 0, 0, 0.25) 2px 3px 2px);"><path d="M 180 116.04 Q 274.04 116.04 274.04 156.92 Q 274.04 197.8 356.84 197.76" fill="none" stroke="none" pointer-events="stroke"/><path d="M 363.59 197.75 L 354.59 202.26 L 356.84 197.76 L 354.59 193.26 Z" fill="none" stroke="none" pointer-events="all"/><path d="M 180 116.04 M 180 116.04 C 243.1 117.2 272.89 128.31 274.04 156.92 M 180 116.04 C 240.35 116.58 272.43 125.32 274.04 156.92 M 274.04 156.92 C 277.9 184.25 304.95 196.39 356.84 197.76 M 274.04 156.92 C 270.94 187.07 298.35 200.56 356.84 197.76" fill="none" stroke="rgb(0, 0, 0)" stroke-width="3" stroke-linejoin="round" stroke-linecap="round" stroke-miterlimit="10" pointer-events="stroke"/><path d="M 354.9 192.9 C 354.9 192.9 354.9 192.9 354.9 192.9 M 354.9 192.9 C 354.9 192.9 354.9 192.9 354.9 192.9" fill="none" stroke="rgb(0, 0, 0)" stroke-width="1.5" stroke-linejoin="round" stroke-linecap="round" stroke-miterlimit="10" pointer-events="all"/><path d="M 363.59 197.75 M 363.59 197.75 C 359.83 196.89 360.73 201.44 354.59 202.26 M 363.59 197.75 C 361.93 197.82 359.89 199.84 354.59 202.26 M 354.59 202.26 C 355.91 201.54 355.79 199.84 356.84 197.76 M 354.59 202.26 C 354.99 200.48 356.06 199.34 356.84 197.76 M 356.84 197.76 C 355.66 196.29 354.95 196.88 354.59 193.26 M 356.84 197.76 C 355.79 196.35 355.44 194.78 354.59 193.26 M 354.59 193.26 C 356.98 195.25 359.14 196.4 363.59 197.75 M 354.59 193.26 C 358.7 195.12 361.42 197.42 363.59 197.75" fill="none" stroke="rgb(0, 0, 0)" stroke-width="3" stroke-linejoin="round" stroke-linecap="round" stroke-miterlimit="10" pointer-events="all"/></g><g style="filter: drop-shadow(rgba(0, 0, 0, 0.25) 2px 3px 2px);"><path d="M 456 261 Q 456.04 321.8 289.05 321.83" fill="none" stroke="none" pointer-events="stroke"/><path d="M 282.3 321.83 L 291.3 317.33 L 289.05 321.83 L 291.3 326.33 Z" fill="none" stroke="none" pointer-events="all"/><path d="M 456 261 M 456 261 C 452.71 305.42 402.69 320.7 289.05 321.83 M 456 261 C 455.35 299.88 404.33 325.14 289.05 321.83" fill="none" stroke="rgb(0, 0, 0)" stroke-width="3" stroke-linejoin="round" stroke-linecap="round" stroke-miterlimit="10" pointer-events="stroke"/><path d="M 282.26 321.88 C 282.26 321.88 282.26 321.88 282.26 321.88 M 282.26 321.88 C 282.26 321.88 282.26 321.88 282.26 321.88" fill="none" stroke="rgb(0, 0, 0)" stroke-width="1.5" stroke-linejoin="round" stroke-linecap="round" stroke-miterlimit="10" pointer-events="all"/><path d="M 282.3 321.83 M 282.3 321.83 C 284.93 321.84 286.43 319.75 291.3 317.33 M 282.3 321.83 C 286.15 320.78 288.18 318.3 291.3 317.33 M 291.3 317.33 C 290.55 318 289.61 320.43 289.05 321.83 M 291.3 317.33 C 290.55 318.61 290.15 320.83 289.05 321.83 M 289.05 321.83 C 289.09 323.85 289.33 325.22 291.3 326.33 M 289.05 321.83 C 289.64 323.43 290.95 324.73 291.3 326.33 M 291.3 326.33 C 288.31 325.09 287.45 324.77 282.3 321.83 M 291.3 326.33 C 289.54 325.9 285.46 324.23 282.3 321.83" fill="none" stroke="rgb(0, 0, 0)" stroke-width="3" stroke-linejoin="round" stroke-linecap="round" stroke-miterlimit="10" pointer-events="all"/></g></g></svg>